<svg xmlns="http://www.w3.org/2000/svg" width="20.272" height="27.013" viewBox="0 0 20.272 27.013">
    <defs>
        <style>
            .cls-1{fill:#fff;stroke:#2d2d2d;stroke-width:.4px;stroke-miterlimit:10}
        </style>
    </defs>
    <g id="Group_111088" transform="translate(-39.779 -3691.853)">
        <path id="Path_145945" d="M746.609 120.685a5.955 5.955 0 0 1 2.6 3.3 4.808 4.808 0 0 1-.1 3.4 4.945 4.945 0 0 1-3.526 2.635 5.1 5.1 0 0 1-4.128-1.238h-3.714a7.777 7.777 0 0 0 3.113 3.236 7.681 7.681 0 0 0 3.4.953 8.4 8.4 0 0 0 5.652-1.969 7.459 7.459 0 0 0 2.54-4.192 7.617 7.617 0 0 0-.6-4.509 9.465 9.465 0 0 0-3.113-3.97z" class="cls-1" transform="translate(-694.451 3582.477)"/>
        <path id="Path_145946" d="M749.743 104.109c-.475.208-.518.675-.991 1.545a11 11 0 0 1-2.37 2.735c-2.761 2.838-1.707 4.551-4.536 7.409-1.075 1.088-1.837 1.454-1.812 2.27a2.789 2.789 0 0 0 3.079 2.211c.706-.217.917-.95 1.426-1.969 1.605-3.216 2.846-2.624 4.864-6.11 1.176-2.031.984-2.627 2.233-4.039.759-.859 1.3-1.174 1.3-1.829.001-1.288-2.109-2.699-3.193-2.223z" class="cls-1" transform="translate(-695.34 3588.056)"/>
        <path id="Path_145947" d="M748.747 107.124c.314-.042.521.07 2.388 1.373 1.212.846 1.341.949 1.425 1.179.265.722-.371 1.393-1.592 3.1-2.43 3.394-3.646 5.092-3.93 5.6-.306.548-.664 1.25-1.357 1.409-.567.13-1.07-.168-2-.741-1.123-.69-1.892-1.162-1.993-1.911-.067-.494.193-.844.863-1.776 1.39-1.931 2.419-3.408 2.611-3.689.421-.607.757-1.13 1.829-2.682.984-1.423 1.264-1.799 1.756-1.862z" class="cls-1" transform="translate(-695.981 3586.847)"/>
        <path id="Ellipse_13093" fill="#fff" stroke="#2d2d2d" stroke-linecap="round" stroke-width="0.4px" d="M2.9 0A2.9 2.9 0 1 1 0 2.9 2.9 2.9 0 0 1 2.9 0z" transform="translate(49.418 3698.515)"/>
        <path id="Path_145948" d="M733.464 134.456a.551.551 0 0 0 .01.938l.03.021c.574.4 1.66.183 4.6.184 2.812 0 3.879.2 4.413-.184a.54.54 0 0 0 .013-.919l-.02-.015c-.562-.4-1.682-.169-4.55-.176-2.841-.005-3.951-.242-4.496.151z" class="cls-1" transform="translate(-692.681 3576.284)"/>
        <path id="Path_145949" d="M732.531 144.9a.755.755 0 0 0-.078.885c.7 1.107 4.357.327 11.129.406 4.758.056 7.871.5 8.489-.46a.7.7 0 0 0-.046-.808c-.809-1.048-4.328-.023-9.748-.035-5.44-.01-8.867-1.061-9.746.012z" class="cls-1" transform="translate(-692.346 3572.315)"/>
        <path id="Path_145950" d="M741.312 143.587a9.315 9.315 0 0 1 1.56-3.375c.826-1.113 1.963-2.729 3.441-2.657 1.259.062 2.131 1.306 2.977 2.514a10.233 10.233 0 0 1 1.573 3.531z" class="cls-1" transform="translate(-695.839 3574.99)"/>
    </g>
</svg>
