<svg xmlns="http://www.w3.org/2000/svg" width="29.946" height="26.08" viewBox="0 0 29.946 26.08">
  <defs>
    <style>
      .cls-1, .cls-3, .cls-4, .cls-5 {
        fill: #fff;
      }

      .cls-2 {
        fill: none;
      }

      .cls-2, .cls-4, .cls-5 {
        stroke: #2d2d2d;
      }

      .cls-2, .cls-3, .cls-4, .cls-5 {
        stroke-miterlimit: 10;
        stroke-width: 0.4px;
      }

      .cls-3 {
        stroke: #222;
      }

      .cls-3, .cls-4 {
        stroke-linecap: round;
      }
    </style>
  </defs>
  <g id="Group_111090" data-name="Group 111090" transform="translate(0.2 0.204)">
    <path id="Path_147517" data-name="Path 147517" class="cls-1" d="M118.6,53.935l.133.839-.192.281-3.129.1.791-.994Z" transform="translate(-98.143 -43.83)"/>
    <path id="Path_147518" data-name="Path 147518" class="cls-2" d="M116.883,57.189" transform="translate(-98.577 -44.787)"/>
    <path id="Path_147519" data-name="Path 147519" class="cls-1" d="M114.843,44.669l-.086-2.447,1.451-.43,1.34.3-.135,1.807-2.264,1.418-.355-.4Z" transform="translate(-97.951 -40.257)"/>
    <circle id="Ellipse_14814" data-name="Ellipse 14814" class="cls-3" cx="3.036" cy="3.036" r="3.036" transform="translate(22.856 19.604)"/>
    <path id="Path_147520" data-name="Path 147520" class="cls-4" d="M126.272,65.013a3.9,3.9,0,0,1,2.211.723c.476.349,1.317,1.15,1.121,1.563-.277.588-2.179-.594-3.72.3-1.431.832-1.44,2.809-2.486,2.825a1.407,1.407,0,0,1-1.007-.453,1.372,1.372,0,0,1-.3-.69,3.714,3.714,0,0,1,.852-2.868A4.3,4.3,0,0,1,126.272,65.013Z" transform="translate(-100.098 -47.089)"/>
    <path id="Path_147521" data-name="Path 147521" class="cls-5" d="M117.545,42.785a2.549,2.549,0,0,1-.762,2.88,1.981,1.981,0,0,1-1.869.109" transform="translate(-97.998 -40.549)"/>
    <path id="Path_147522" data-name="Path 147522" class="cls-5" d="M100.533,50.39c.764.607.649,1.882.6,2.6A3.922,3.922,0,0,1,99.9,55.912c-.539.419-1.421.466-3.183.561a10.128,10.128,0,0,1-3.192-.368,2.909,2.909,0,0,1-.815-.414,2.975,2.975,0,0,1-.638-.657,5.874,5.874,0,0,1-1.033-2.484,6.12,6.12,0,0,1-.074-1.469.851.851,0,0,1,.221-.558.928.928,0,0,1,.508-.263,22.032,22.032,0,0,1,4.18-.423c.637.006,1.065.011,1.416.02.248.006.627.022.953.047C99.482,50,100.1,50.05,100.533,50.39Z" transform="translate(-90.946 -42.624)"/>
    <circle id="Ellipse_14815" data-name="Ellipse 14815" class="cls-3" cx="3.036" cy="3.036" r="3.036" transform="translate(8.227 19.604)"/>
    <path id="Path_147523" data-name="Path 147523" class="cls-2" d="M128.823,54.931" transform="translate(-102.09 -44.123)"/>
    <path id="Path_147524" data-name="Path 147524" class="cls-4" d="M112.326,58.674a12.912,12.912,0,0,1,3.4.23,5.554,5.554,0,0,0-1.006,1.659,5.866,5.866,0,0,0-.1,3.755l.777.052a13.1,13.1,0,0,1,.746-2.793c.265-.671.472-1.365.76-2.027.258-.593.458-.973.341-1.426a1.585,1.585,0,0,0-.742-.9,11.343,11.343,0,0,0-4.865-1.265Z" transform="translate(-97.033 -44.425)"/>
    <path id="Path_147525" data-name="Path 147525" class="cls-4" d="M116.13,54.931a12.051,12.051,0,0,1,2.672,3.144c.717,1.224,1.363,2.326,1.152,3.708a4.715,4.715,0,0,1-.944,2.073A6.691,6.691,0,0,1,116.9,65.7a11.039,11.039,0,0,1-4.477,1.408,16.38,16.38,0,0,1-9.685-1.589c-1.293-.686-2.9-1.565-3.133-3.086a4.024,4.024,0,0,1,.608-2.419,7.321,7.321,0,0,1,2.649-2.879l3.986,1.953a4.99,4.99,0,0,0,6.449,4.427,4.424,4.424,0,0,0,2.7-2.185,4.734,4.734,0,0,0,.263-2.542A11.72,11.72,0,0,1,115.923,56,5.368,5.368,0,0,1,116.13,54.931Z" transform="translate(-93.485 -44.123)"/>
    <path id="Path_147526" data-name="Path 147526" class="cls-4" d="M121.685,51.522a1.779,1.779,0,0,1,.351-.915,1.82,1.82,0,0,1,1.03-.661.439.439,0,0,1-.075-.3c.033-.223.271-.335.392-.392a1.046,1.046,0,0,1,.587-.092c.711.121,1.03,1.566,1.106,1.917a3.7,3.7,0,0,1-.185,2.368,1.1,1.1,0,0,1-1.282.631h-.014l-.466-.412-.007-.006-.487-.431c-.02-.039-.043-.076-.064-.115" transform="translate(-99.99 -42.424)"/>
    <path id="Path_147527" data-name="Path 147527" class="cls-4" d="M112.494,43.925a2.875,2.875,0,0,1-.152-2.476,2.79,2.79,0,0,1,.682-.986,3.068,3.068,0,0,1,1.516-.783,2.774,2.774,0,0,1,2.148.4c.527.4,1.148,1.164.935,1.541-.337.6-2.34-.561-3.238.284-.863.812.063,2.757-.523,3.019C113.488,45.1,112.811,44.436,112.494,43.925Z" transform="translate(-97.178 -39.618)"/>
    <path id="Path_147528" data-name="Path 147528" class="cls-5" d="M111.881,48.3a1.58,1.58,0,0,0,.3-1.336,1.522,1.522,0,0,0-1.129-1.083,2.666,2.666,0,0,0-1.5.092,3.9,3.9,0,0,0-1.889,1.405,12.959,12.959,0,0,0-1.231,2.049c-.19.395-.324.723-.428.992-1.083,2.8-1.653,4.216-1.059,5.044.5.7,1.5.795,2.856.921,1.193.112,2.354.22,2.879-.438.428-.536-.026-1.01-.046-3.294a7.172,7.172,0,0,1,.277-2.534A6.106,6.106,0,0,1,111.881,48.3Z" transform="translate(-94.995 -41.44)"/>
    <path id="Path_147529" data-name="Path 147529" class="cls-4" d="M113.078,52.949a1.172,1.172,0,0,1-.176-.012h-.012a1.167,1.167,0,0,1-.341-.1c-1.21-.56-1.328-2.444-1.338-2.671a3.948,3.948,0,0,1,.6-2.271.142.142,0,0,0,.011-.02,4.666,4.666,0,0,1,1.04-1.2.973.973,0,0,1,.584-.228.5.5,0,0,1,.135.023.516.516,0,0,1,.2.128,1.393,1.393,0,0,1,.352.911v0a1.127,1.127,0,0,1-.08.469,6.628,6.628,0,0,1-.533.877.08.08,0,0,0-.011.016,4.6,4.6,0,0,0-.388.8c-.206.546-.388,1.03-.164,1.367.076.112.212.345,1.613.345a17.71,17.71,0,0,0,2.654-.046c.038,0,.073-.007.107-.011a1.8,1.8,0,0,0,.355-.08,7.236,7.236,0,0,0,.91-.524c.3-.156.453-.232.639-.2a.831.831,0,0,1,.489.4,1.239,1.239,0,0,1,.187.884.526.526,0,0,1-.429.5.323.323,0,0,1-.167-.011c-.191-.067-.181-.292-.323-.437s-.426-.2-1.106.046c-.14.042-.279.08-.414.119" transform="translate(-96.907 -41.626)"/>
    <path id="Path_147530" data-name="Path 147530" class="cls-1" d="M113.743,46.824a1.03,1.03,0,0,0-.4-.54,1.969,1.969,0,0,0-.725-.214c-.653.422-.858.871-1.512,1.293l1.27.656.968-.63Z" transform="translate(-96.877 -41.442)"/>
    <path id="Path_147531" data-name="Path 147531" class="cls-2" d="M113.171,54.937c1.089.1,1.99.122,2.632.124,1.474,0,2.22-.109,2.326-.45a2.588,2.588,0,0,0-.09-.659c-.049-.263-.1-.478-.128-.62" transform="translate(-97.485 -43.653)"/>
    <path id="Path_147532" data-name="Path 147532" class="cls-2" d="M105.8,44.993" transform="translate(-95.317 -41.199)"/>
    <path id="Path_147533" data-name="Path 147533" class="cls-2" d="M123.682,50.311a4.559,4.559,0,0,1,.507,4.13" transform="translate(-100.577 -42.764)"/>
    <path id="Union_2" data-name="Union 2" class="cls-5" d="M96.987,55.082l0-.435a.4.4,0,0,0-.4-.392l-.435,0a.647.647,0,0,1-.011-1.294h0l.435,0a.4.4,0,0,0,.392-.4l0-.434a.647.647,0,1,1,1.293-.011h0l0,.435a.394.394,0,0,0,.4.392l.434,0a.647.647,0,1,1,.012,1.293l-.435,0a.4.4,0,0,0-.392.4h0l0,.434a.647.647,0,0,1-1.293.011h0Z" transform="translate(-92.285 -43.107)"/>
  </g>
</svg>
